PathFileType	4	(X/Y/Z)	./resultDataOpenSim/trcMotMarkerGrf/sub06/qtm-15-01.trc
DataRate	CameraRate	NumFrames	NumMarkers	Units	OrigDataRate	OrigDataStartFrame	OrigNumFrames
250.000000	250.000000	11	24	m	250.000000	193	513
Frame#	Time	L.Toe.Tip			R.Toe.Tip			L.Ankle.Lat			R.Ankle.Lat			L.Ankle.Med			R.Ankle.Med			L.Heel			R.Heel			L.Knee.Lat			R.Knee.Lat			L.Knee.Med			R.Knee.Med			L.Thigh.Upper			R.Thigh.Upper			L.ASIS			R.ASIS			V.Sacral			L.Acromium			R.Acromium			C7			L.Elbow			R.Elbow			L.Wrist.Lat			R.Wrist.Lat
		X1	Y1	Z1	X2	Y2	Z2	X3	Y3	Z3	X4	Y4	Z4	X5	Y5	Z5	X6	Y6	Z6	X7	Y7	Z7	X8	Y8	Z8	X9	Y9	Z9	X10	Y10	Z10	X11	Y11	Z11	X12	Y12	Z12	X13	Y13	Z13	X14	Y14	Z14	X15	Y15	Z15	X16	Y16	Z16	X17	Y17	Z17	X18	Y18	Z18	X19	Y19	Z19	X20	Y20	Z20	X21	Y21	Z21	X22	Y22	Z22	X23	Y23	Z23	X24	Y24	Z24

193	0.768	0.17647346	-0.063067714	-0.0059893776	-0.092487304	0.12218419	0.14034818	0.056978746	-0.031168008	-0.051789983	-0.14439353	0.25079095	0.15180556	0.04172244	-0.016336869	0.034071593	-0.10411241	0.23745611	0.070090613	-0.023575451	-0.056660171	-0.02068858	-0.18624234	0.27758477	0.085500228	0.1368918	0.33580868	-0.061540946	0.1901202	0.39241015	0.20472727	0.097933991	0.33946705	0.054219877	0.17914983	0.37705579	0.068550748	0.065324696	0.71587453	-0.14392689	-0.0081144842	0.71463549	0.19634002	0.12069202	0.768706	-0.085759739	0.080979844	0.77636659	0.15829789	-0.078631285	0.84859968	0.0066189394	0.12735167	1.2396616	-0.16285396	0.067437844	1.2444316	0.18565211	0.013011779	1.281661	-0.0046115668	0.046219967	0.93894074	-0.24008385	-0.021784736	0.94487007	0.27774187	0.16573266	0.72620155	-0.27183439	0.17357561	0.7840607	0.29832914
194	0.772	0.17646938	-0.063053141	-0.0059581228	-0.069663157	0.1222621	0.14119696	0.056962052	-0.031003501	-0.051934092	-0.12576159	0.24904883	0.15174768	0.041817515	-0.015948716	0.033975614	-0.085370021	0.23653404	0.069713287	-0.023562855	-0.056372701	-0.020702895	-0.16883078	0.274128	0.085275579	0.13780178	0.33617493	-0.061681453	0.2053275	0.39954104	0.20309986	0.096896513	0.33998022	0.054077953	0.19454352	0.38394431	0.067091275	0.070682486	0.71694898	-0.14391964	-0.0016589669	0.71696164	0.19667672	0.12611768	0.76903799	-0.086058521	0.087116424	0.77859601	0.15850964	-0.072445485	0.8502557	0.0064153757	0.13555372	1.2408208	-0.16271176	0.073937741	1.2455229	0.18567884	0.020734806	1.2828356	-0.0049836917	0.056185818	0.93894015	-0.24118081	-0.018069137	0.94663817	0.27654488	0.18267091	0.72922194	-0.27076761	0.17267323	0.78109416	0.30073395
195	0.776	0.17640247	-0.063041197	-0.0060260148	-0.046650532	0.12236243	0.1421106	0.056992382	-0.030790873	-0.052067138	-0.10709488	0.24701746	0.15166611	0.042005634	-0.015494741	0.033846184	-0.066543312	0.2353123	0.069362402	-0.023543169	-0.056060014	-0.020786275	-0.15146496	0.27037613	0.085146058	0.13862427	0.33647678	-0.061814331	0.22033804	0.40680418	0.20139485	0.096209029	0.34046784	0.053850497	0.20941921	0.39092832	0.065696717	0.075743337	0.71807577	-0.1438456	0.0045683087	0.7193108	0.19733826	0.13171497	0.76937291	-0.086362832	0.093371576	0.78072889	0.15866355	-0.065925785	0.85171861	0.0066727013	0.14357687	1.2419171	-0.16272416	0.080392026	1.2466253	0.18574011	0.028492575	1.2841238	-0.0052532496	0.066496826	0.93884593	-0.24210714	-0.014364122	0.94823372	0.27540361	0.19959831	0.73247836	-0.26960522	0.1716503	0.77832573	0.30315035
196	0.78	0.17628301	-0.063038965	-0.006175652	-0.023534709	0.12245923	0.14304761	0.057034258	-0.03053063	-0.052230633	-0.088375888	0.24465414	0.15155879	0.042119053	-0.015017786	0.033640435	-0.047616091	0.2337678	0.06903851	-0.023516854	-0.055728493	-0.020938299	-0.134108	0.2663284	0.085116498	0.13939324	0.33674131	-0.061945279	0.23512509	0.41415748	0.19963678	0.096033459	0.34094482	0.053561171	0.22397799	0.39800942	0.064316367	0.080611226	0.71926181	-0.14381832	0.011042925	0.72164759	0.19801622	0.13761772	0.76975894	-0.086597295	0.099758585	0.7827544	0.15874489	-0.05918034	0.85306161	0.0068601533	0.15143973	1.2429499	-0.16288567	0.086834064	1.2477178	0.18583848	0.036370083	1.2854827	-0.0055068249	0.077164138	0.9386318	-0.24283376	-0.010551697	0.94966133	0.27433762	0.21650316	0.7359833	-0.268346	0.17052724	0.77574062	0.30552976
197	0.784	0.17616854	-0.063041616	-0.0062901031	-0.00039775893	0.12251077	0.14398183	0.057081841	-0.030234884	-0.052424671	-0.069587274	0.24201898	0.15143294	0.042075075	-0.014534366	0.033341027	-0.028595484	0.23191503	0.068735897	-0.02348246	-0.05537391	-0.021148876	-0.11657366	0.26191448	0.085043007	0.14013426	0.33699665	-0.062103246	0.24954115	0.42156924	0.19788026	0.096302104	0.34144998	0.053230112	0.23816924	0.40519831	0.062974352	0.0852765	0.72050416	-0.1439437	0.018031069	0.72397868	0.19860969	0.14363972	0.77015046	-0.086848254	0.10628187	0.78466142	0.15873329	-0.052425432	0.85442664	0.0066185919	0.15916122	1.2439222	-0.16318264	0.093299084	1.2487783	0.18596452	0.044538353	1.2868327	-0.0059281235	0.087924272	0.93835528	-0.24347441	-0.0065799892	0.95092867	0.2733641	0.23337007	0.73974439	-0.26699283	0.16935521	0.77333464	0.3078369
198	0.788	0.17609068	-0.063052168	-0.0062921134	0.022734893	0.12249465	0.14490637	0.057138377	-0.029920115	-0.052636925	-0.0507081	0.23923995	0.15130093	0.041982331	-0.014020521	0.032977812	-0.0094569286	0.22982782	0.068474007	-0.023436021	-0.054986685	-0.021403036	-0.098609316	0.25707406	0.084759604	0.14084097	0.33724676	-0.062312786	0.26342727	0.42901671	0.19616806	0.096863622	0.34199224	0.052857067	0.25186409	0.41249244	0.061706766	0.089630571	0.72173394	-0.14422573	0.025523121	0.72631644	0.1992297	0.14955094	0.77048702	-0.08723099	0.11294932	0.78644688	0.1586059	-0.045876323	0.85589249	0.0061810471	0.16674782	1.244839	-0.16359711	0.099810343	1.2497908	0.18610103	0.053009563	1.2881158	-0.0065551562	0.098468066	0.93810414	-0.24418457	-0.0025078267	0.95205021	0.27249258	0.25017391	0.74376215	-0.26555734	0.16818177	0.77111362	0.31005646
199	0.792	0.17602885	-0.063083492	-0.0062123941	0.04589383	0.12241215	0.14581515	0.05720058	-0.029596084	-0.052867331	-0.031713764	0.23637502	0.15116245	0.041982429	-0.013450984	0.03259443	0.0098259752	0.22761596	0.068264399	-0.023373411	-0.054562884	-0.021682721	-0.080165723	0.25187207	0.084294926	0.14149974	0.33748419	-0.06257531	0.27674716	0.4364707	0.19450274	0.097617026	0.34253727	0.052458157	0.26503491	0.4198692	0.060500715	0.093634723	0.72285018	-0.14444869	0.033335487	0.72864384	0.20007467	0.15531542	0.77075858	-0.087772192	0.11978309	0.7881229	0.15834358	-0.039600747	0.8574236	0.0061292734	0.17419834	1.2457097	-0.1641077	0.10638518	1.2507466	0.18623486	0.061481518	1.2893522	-0.0071284019	0.10872998	0.9379087	-0.24500555	0.0015983153	0.95305027	0.27172674	0.26687583	0.74802444	-0.2640673	0.16699972	0.76908263	0.31219006
200	0.796	0.17596502	-0.063125811	-0.0061266995	0.069136746	0.12228379	0.14668508	0.057263465	-0.029260464	-0.05312228	-0.012583403	0.23339116	0.15100553	0.042094551	-0.012831134	0.032221326	0.029162211	0.22535207	0.068058297	-0.023295618	-0.054102456	-0.021972226	-0.061408384	0.24644038	0.083833586	0.142118	0.33771462	-0.062871923	0.28961103	0.44389175	0.19285862	0.098482106	0.34304494	0.052087597	0.277699	0.42729069	0.05932822	0.097399136	0.72380482	-0.14434431	0.041285722	0.7309384	0.20124227	0.16101104	0.77098757	-0.088432197	0.12681609	0.78970706	0.15793096	-0.033487137	0.85893771	0.0067502169	0.18151676	1.2465502	-0.1646889	0.11306131	1.2516357	0.18636601	0.069633598	1.2905971	-0.0073677516	0.11886098	0.93773485	-0.24586254	0.0057267439	0.95396723	0.27106764	0.28343371	0.75250889	-0.26255609	0.16575802	0.76724181	0.31424599
201	0.8	0.17590667	-0.063150137	-0.006081715	0.092515006	0.12214003	0.14746915	0.057331606	-0.028903061	-0.053394768	0.0067000454	0.23024412	0.1508262	0.042238728	-0.012183551	0.031875741	0.048422925	0.22301681	0.067801992	-0.0232099	-0.05359872	-0.022267003	-0.042437575	0.24083832	0.083486774	0.14269225	0.33796589	-0.063167854	0.30218626	0.45123496	0.19120867	0.099311622	0.34350108	0.05183385	0.28985359	0.4347064	0.058190069	0.10110884	0.72464383	-0.14396467	0.049328637	0.73322866	0.20260032	0.16667879	0.77119989	-0.089149677	0.13406944	0.79120909	0.15735149	-0.027358644	0.86038754	0.0078909633	0.18871767	1.2473808	-0.16531079	0.11990622	1.2524448	0.18650326	0.077486332	1.2918548	-0.0073154215	0.12901589	0.93753616	-0.24667954	0.0098914378	0.95486378	0.27051159	0.29982143	0.7571947	-0.26104042	0.16441448	0.76558847	0.316228
202	0.804	0.17585911	-0.063148607	-0.0060767653	0.11605208	0.12200465	0.14810211	0.057420156	-0.028512459	-0.053660223	0.026152745	0.22691709	0.15063093	0.042352645	-0.011527172	0.0315694	0.067698711	0.2205344	0.067512977	-0.023122329	-0.053040991	-0.02256681	-0.023254934	0.23507517	0.083243371	0.14319643	0.3382694	-0.063426821	0.31457141	0.45844948	0.18955167	0.099947167	0.34391632	0.051770019	0.30150803	0.44205292	0.057096478	0.10494246	0.72545209	-0.14362235	0.057493016	0.73557196	0.2038916	0.17229181	0.77141903	-0.089876095	0.1415378	0.79263128	0.15659503	-0.021093329	0.86178184	0.0092807647	0.19581913	1.2482185	-0.16594204	0.12699027	1.2531621	0.18665173	0.085264092	1.2930803	-0.0072112066	0.13926415	0.93728884	-0.24742983	0.014100099	0.95583103	0.2700436	0.31603099	0.76206886	-0.25951868	0.16296145	0.76411785	0.31812918
203	0.808	0.17582036	-0.063136084	-0.0060870633	0.13971711	0.12188914	0.14852998	0.057542425	-0.028079523	-0.053892386	0.045782518	0.22341365	0.15042372	0.042458063	-0.010875962	0.031311769	0.087288877	0.21785369	0.067242921	-0.023030528	-0.052427036	-0.022855275	-0.0039569635	0.22919801	0.083070699	0.14366057	0.3386248	-0.063643765	0.32674871	0.4654774	0.18791024	0.10039308	0.3442952	0.051877502	0.31271563	0.44926161	0.056036276	0.10899772	0.72626503	-0.14348002	0.065778773	0.73798726	0.20495379	0.17783378	0.77167367	-0.090589255	0.1492047	0.79397713	0.15567781	-0.01467044	0.86314637	0.010710719	0.20283458	1.2490712	-0.16655302	0.13434957	1.2537811	0.18680416	0.093081218	1.2942356	-0.0071875075	0.14962906	0.936997	-0.24809741	0.018348864	0.95696755	0.2696402	0.3320628	0.76712587	-0.25797863	0.16141644	0.76282299	0.31993424
